<?xml version="1.0" encoding="UTF-8" standalone="no"?>
<!-- Created with Inkscape (http://www.inkscape.org/) -->

<svg
   version="1.1"
   id="svg1"
   width="244"
   height="244"
   viewBox="0 0 244 244"
   sodipodi:docname="intu-logo.svg"
   inkscape:version="1.4.2 (f4327f4, 2025-05-13)"
   xmlns:inkscape="http://www.inkscape.org/namespaces/inkscape"
   xmlns:sodipodi="http://sodipodi.sourceforge.net/DTD/sodipodi-0.dtd"
   xmlns="http://www.w3.org/2000/svg"
   xmlns:svg="http://www.w3.org/2000/svg">
  <defs
     id="defs1" />
  <sodipodi:namedview
     id="namedview1"
     pagecolor="#ffffff"
     bordercolor="#000000"
     borderopacity="0.25"
     inkscape:showpageshadow="2"
     inkscape:pageopacity="0.0"
     inkscape:pagecheckerboard="0"
     inkscape:deskcolor="#d1d1d1"
     inkscape:zoom="4.1300677"
     inkscape:cx="122.0319"
     inkscape:cy="80.022902"
     inkscape:window-width="1920"
     inkscape:window-height="1017"
     inkscape:window-x="-8"
     inkscape:window-y="-8"
     inkscape:window-maximized="1"
     inkscape:current-layer="g1" />
  <g
     inkscape:groupmode="layer"
     inkscape:label="Image"
     id="g1">
    <path
       style="fill:#f87b0a"
       d="m 152.71931,206.81545 c -7.09641,-1.39651 -18.27448,-6.58212 -23.39654,-10.85386 l -3.3439,-4.88752 2.49961,-4.15396 c 17.02225,-28.28836 14.16313,-95.434211 -2.04466,-120.51081 -6.34243,-9.812973 -7.95192,-13.28988 -0.0954,-16.669647 16.05089,-6.904905 28.51441,-0.406933 34.14565,18.501735 6.59963,22.160308 17.7768,19.766741 22.04717,-4.721352 4.90786,-28.143745 20.65578,-36.577263 37.73878,-20.210333 20.1778,19.332002 20.48783,109.424237 0.48507,140.958627 -11.58838,18.26911 -40.71865,27.92291 -68.03574,22.54712 z M 25.15092,203.48873 C 8.978068,195.11805 5.3258202,184.95627 6.2531607,150.90879 7.7857741,94.63862 23.731702,54.644802 49.709797,41.915649 c 13.862141,-6.792389 39.635706,-5.579237 55.033353,2.5904 12.2266,6.487153 18.47707,10.332525 13.0525,18.393404 -12.90481,19.176469 -11.27746,96.817177 4.00045,122.188657 5.26543,8.74411 1.41856,10.69175 -8.64518,15.31304 -16.879687,7.75118 -32.950777,-2.98172 -35.256964,-23.54597 -2.542057,-22.6675 -17.972925,-23.5924 -22.013665,-1.31947 -4.261521,23.48989 -16.987064,35.0657 -30.729371,27.95302 z"
       id="path7"
       sodipodi:nodetypes="sscsssssssssssssssssss" />
  </g>
</svg>
